<?xml version="1.0" standalone="no"?>
<!DOCTYPE svg PUBLIC "-//W3C//DTD SVG 1.1//EN" "http://www.w3.org/Graphics/SVG/1.1/DTD/svg11.dtd">
<!--Generator: Xara Designer (www.xara.com), SVG filter version: 6.1.0.6-->
<svg stroke-width="0.501" stroke-linejoin="bevel" fill-rule="evenodd" xmlns:xlink="http://www.w3.org/1999/xlink" xmlns="http://www.w3.org/2000/svg" version="1.1" overflow="visible" width="384pt" height="384pt" viewBox="0 0 384 384">
 <defs>
	</defs>
 <g id="Document" fill="none" stroke="black" font-family="Times New Roman" font-size="16" transform="scale(1 -1)">
  <g id="Spread" transform="translate(0 -384)">
   <g id="Layer 1">
    <path d="M 75.771,308.225 C 139.923,372.38 244.073,372.38 308.225,308.225 C 372.38,244.073 372.38,139.923 308.225,75.771 C 244.073,11.616 139.923,11.616 75.771,75.771 C 11.616,139.923 11.616,244.073 75.771,308.225 Z" stroke-width="53.81" stroke="#ffffff" fill="#ffffff" stroke-linejoin="round" stroke-linecap="round" marker-start="none" marker-end="none" stroke-miterlimit="79.8403193612775"/>
    <path d="M 75.771,307.746 C 139.923,371.901 244.073,371.901 308.225,307.746 C 372.38,243.594 372.38,139.443 308.225,75.292 C 244.073,11.137 139.923,11.137 75.771,75.292 C 11.616,139.443 11.616,243.594 75.771,307.746 Z" fill="#ffffff" stroke="#04a4bb" stroke-width="15.739" stroke-linejoin="round" stroke-linecap="round" marker-start="none" marker-end="none" stroke-miterlimit="79.8403193612775"/>
    <path d="M 95.668,95.182 C 80.412,110.435 69.536,128.411 63.033,147.557 L 79.932,147.557 C 85.799,132.559 94.787,118.513 106.896,106.41 C 153.868,59.432 230.135,59.432 277.113,106.41 C 289.219,118.513 298.206,132.559 304.067,147.557 L 320.967,147.557 C 314.47,128.411 303.588,110.435 288.338,95.182 C 235.16,42.001 148.845,42.001 95.668,95.182 Z" fill="#36b7c9" stroke="none" stroke-width="1.967" marker-start="none" marker-end="none" stroke-miterlimit="79.8403193612775"/>
    <path d="M 121.66,121.174 C 113.732,129.092 107.425,138.025 102.735,147.557 L 120.711,147.557 C 124.057,142.127 128.081,137.004 132.79,132.304 C 165.471,99.62 218.535,99.62 251.215,132.304 C 255.921,137.004 259.946,142.127 263.292,147.557 L 281.264,147.557 C 276.575,138.025 270.268,129.092 262.346,121.174 C 223.518,82.342 160.488,82.342 121.66,121.174 Z" fill="#68c8d6" stroke="none" stroke-width="1.967" marker-start="none" marker-end="none" stroke-miterlimit="79.8403193612775"/>
    <g id="Group" fill-rule="nonzero" stroke-linejoin="round" stroke-linecap="round" stroke="none" stroke-width="0.453" fill="#000000" stroke-miterlimit="79.8403193612775">
     <g id="Group_1">
      <g id="Group_2">
       <path d="M 132.313,250.708 L 120.541,250.708 L 116.498,240.481 L 114.258,240.481 L 125.912,269.575 L 127.2,269.575 L 138.616,240.481 L 136.336,240.481 L 132.313,250.708 Z M 121.274,252.531 L 131.639,252.531 L 127.695,262.976 C 127.365,263.795 126.969,264.931 126.507,266.384 C 126.15,265.116 125.76,263.967 125.337,262.936 L 121.274,252.531 Z" marker-start="none" marker-end="none"/>
       <path d="M 144.739,253.106 L 144.739,240.481 L 142.718,240.481 L 142.718,269.456 L 149.615,269.456 C 153.209,269.457 155.864,268.793 157.582,267.465 C 159.3,266.137 160.158,264.138 160.158,261.469 C 160.158,259.527 159.647,257.889 158.622,256.555 C 157.599,255.22 156.043,254.262 153.955,253.681 L 161.823,240.481 L 159.405,240.481 L 151.934,253.106 L 144.739,253.106 Z M 144.739,254.85 L 150.269,254.85 C 152.713,254.85 154.609,255.395 155.957,256.485 C 157.304,257.575 157.978,259.183 157.978,261.311 C 157.978,263.517 157.317,265.123 155.996,266.127 C 154.675,267.131 152.522,267.633 149.535,267.633 L 144.739,267.633 L 144.739,254.85 Z" marker-start="none" marker-end="none"/>
       <path d="M 179.204,268.049 C 175.57,268.05 172.71,266.887 170.622,264.561 C 168.535,262.236 167.491,259.052 167.491,255.009 C 167.491,250.873 168.475,247.663 170.444,245.377 C 172.412,243.091 175.227,241.948 178.886,241.948 C 181.318,241.948 183.551,242.258 185.585,242.879 L 185.585,241.096 C 183.67,240.422 181.278,240.085 178.411,240.085 C 174.342,240.085 171.137,241.4 168.799,244.029 C 166.46,246.658 165.291,250.331 165.291,255.048 C 165.291,257.994 165.849,260.591 166.966,262.837 C 168.082,265.083 169.687,266.817 171.782,268.04 C 173.876,269.262 176.31,269.873 179.085,269.873 C 181.913,269.873 184.443,269.344 186.676,268.287 L 185.863,266.464 C 183.749,267.521 181.529,268.05 179.204,268.049 Z" marker-start="none" marker-end="none"/>
       <path d="M 213.035,240.481 L 210.994,240.481 L 210.994,254.731 L 194.068,254.731 L 194.068,240.481 L 192.047,240.481 L 192.047,269.456 L 194.068,269.456 L 194.068,256.594 L 210.994,256.594 L 210.994,269.456 L 213.035,269.456 L 213.035,240.481 Z" marker-start="none" marker-end="none"/>
       <path d="M 221.24,240.481 L 221.24,269.456 L 223.261,269.456 L 223.261,240.481 L 221.24,240.481 Z" marker-start="none" marker-end="none"/>
       <path d="M 247.302,240.481 L 231.467,240.481 L 231.467,269.456 L 247.302,269.456 L 247.302,267.594 L 233.488,267.594 L 233.488,256.633 L 246.529,256.633 L 246.529,254.771 L 233.488,254.771 L 233.488,242.344 L 247.302,242.344 L 247.302,240.481 Z" marker-start="none" marker-end="none"/>
       <path d="M 255.884,240.481 L 253.863,240.481 L 253.863,269.456 L 269.738,269.456 L 269.738,267.594 L 255.884,267.594 L 255.884,255.306 L 268.965,255.306 L 268.965,253.423 L 255.884,253.423 L 255.884,240.481 Z" marker-start="none" marker-end="none"/>
      </g>
     </g>
     <g id="Group_3">
      <g id="Group_4">
       <path d="M 72.41,229.273 L 74.611,229.273 L 63.769,200.298 L 61.986,200.298 L 51.184,229.273 L 53.345,229.273 L 60.638,209.553 C 61.748,206.581 62.494,204.348 62.878,202.854 C 63.142,203.846 63.664,205.385 64.444,207.473 L 72.41,229.273 Z" marker-start="none" marker-end="none"/>
       <path d="M 94.548,200.298 L 78.713,200.298 L 78.713,229.273 L 94.548,229.273 L 94.548,227.41 L 80.734,227.41 L 80.734,216.45 L 93.775,216.45 L 93.775,214.588 L 80.734,214.588 L 80.734,202.161 L 94.548,202.161 L 94.548,200.298 Z" marker-start="none" marker-end="none"/>
       <path d="M 103.13,212.923 L 103.13,200.298 L 101.109,200.298 L 101.109,229.273 L 108.006,229.273 C 111.6,229.273 114.256,228.609 115.973,227.281 C 117.691,225.954 118.55,223.955 118.55,221.286 C 118.55,219.344 118.038,217.706 117.013,216.371 C 115.99,215.037 114.434,214.079 112.346,213.497 L 120.214,200.298 L 117.797,200.298 L 110.325,212.923 L 103.13,212.923 Z M 103.13,214.666 L 108.66,214.666 C 111.104,214.666 113,215.212 114.348,216.302 C 115.695,217.392 116.369,219 116.37,221.127 C 116.369,223.334 115.708,224.939 114.388,225.943 C 113.066,226.947 110.913,227.45 107.927,227.45 L 103.13,227.45 L 103.13,214.666 Z" marker-start="none" marker-end="none"/>
       <path d="M 146.295,200.298 L 144.254,200.298 L 127.091,226.023 L 126.933,226.023 C 127.091,222.957 127.17,220.645 127.17,219.086 L 127.17,200.298 L 125.228,200.298 L 125.228,229.273 L 127.249,229.273 L 144.393,203.588 L 144.512,203.588 C 144.393,205.966 144.333,208.225 144.333,210.366 L 144.333,229.273 L 146.295,229.273 L 146.295,200.298 Z" marker-start="none" marker-end="none"/>
       <path d="M 154.501,200.298 L 154.501,229.273 L 156.522,229.273 L 156.522,200.298 L 154.501,200.298 Z" marker-start="none" marker-end="none"/>
       <path d="M 180.563,200.298 L 164.728,200.298 L 164.728,229.273 L 180.563,229.273 L 180.563,227.41 L 166.749,227.41 L 166.749,216.45 L 179.79,216.45 L 179.79,214.588 L 166.749,214.588 L 166.749,202.161 L 180.563,202.161 L 180.563,200.298 Z" marker-start="none" marker-end="none"/>
       <path d="M 194.675,200.298 L 192.634,200.298 L 192.634,227.37 L 183.22,227.37 L 183.22,229.273 L 204.089,229.273 L 204.089,227.37 L 194.675,227.37 L 194.675,200.298 Z" marker-start="none" marker-end="none"/>
       <path d="M 208.39,200.298 L 208.39,229.273 L 210.411,229.273 L 210.411,200.298 L 208.39,200.298 Z" marker-start="none" marker-end="none"/>
       <path d="M 230.013,214.904 L 240.695,214.904 L 240.695,201.685 C 237.894,200.496 234.743,199.902 231.242,199.902 C 226.67,199.902 223.166,201.193 220.727,203.776 C 218.29,206.359 217.071,210.016 217.071,214.746 C 217.071,217.693 217.675,220.305 218.885,222.584 C 220.094,224.863 221.824,226.624 224.077,227.866 C 226.33,229.108 228.916,229.729 231.836,229.729 C 234.994,229.729 237.828,229.148 240.339,227.985 L 239.526,226.162 C 237.015,227.324 234.413,227.905 231.717,227.906 C 227.899,227.905 224.87,226.726 222.63,224.368 C 220.391,222.009 219.271,218.828 219.271,214.825 C 219.271,210.465 220.335,207.185 222.462,204.985 C 224.589,202.785 227.714,201.685 231.836,201.685 C 234.505,201.685 236.771,202.062 238.634,202.815 L 238.634,213.002 L 230.013,213.002 L 230.013,214.904 Z" marker-start="none" marker-end="none"/>
       <path d="M 247.968,200.298 L 247.968,229.273 L 249.989,229.273 L 249.989,200.298 L 247.968,200.298 Z" marker-start="none" marker-end="none"/>
       <path d="M 279.262,200.298 L 277.221,200.298 L 260.058,226.023 L 259.9,226.023 C 260.058,222.957 260.137,220.645 260.137,219.086 L 260.137,200.298 L 258.195,200.298 L 258.195,229.273 L 260.216,229.273 L 277.36,203.588 L 277.479,203.588 C 277.36,205.966 277.3,208.225 277.3,210.366 L 277.3,229.273 L 279.262,229.273 L 279.262,200.298 Z" marker-start="none" marker-end="none"/>
       <path d="M 298.864,214.904 L 309.546,214.904 L 309.546,201.685 C 306.745,200.496 303.594,199.902 300.093,199.902 C 295.521,199.902 292.017,201.193 289.578,203.776 C 287.141,206.359 285.922,210.016 285.922,214.746 C 285.922,217.693 286.526,220.305 287.736,222.584 C 288.945,224.863 290.675,226.624 292.928,227.866 C 295.181,229.108 297.767,229.729 300.687,229.729 C 303.845,229.729 306.679,229.148 309.19,227.985 L 308.377,226.162 C 305.866,227.324 303.264,227.905 300.568,227.906 C 296.75,227.905 293.721,226.726 291.481,224.368 C 289.242,222.009 288.122,218.828 288.122,214.825 C 288.122,210.465 289.186,207.185 291.313,204.985 C 293.44,202.785 296.565,201.685 300.687,201.685 C 303.356,201.685 305.622,202.062 307.485,202.815 L 307.485,213.002 L 298.864,213.002 L 298.864,214.904 Z" marker-start="none" marker-end="none"/>
       <path d="M 332.813,207.77 C 332.813,205.352 331.925,203.436 330.147,202.022 C 328.37,200.609 326.008,199.902 323.062,199.902 C 319.521,199.902 316.806,200.291 314.916,201.071 L 314.916,203.092 C 317.004,202.207 319.666,201.764 322.903,201.765 C 325.282,201.764 327.168,202.309 328.561,203.4 C 329.956,204.49 330.652,205.92 330.652,207.69 C 330.652,208.787 330.421,209.695 329.959,210.415 C 329.496,211.135 328.743,211.793 327.699,212.387 C 326.655,212.982 325.123,213.623 323.102,214.31 C 320.142,215.327 318.097,216.427 316.968,217.61 C 315.838,218.792 315.273,220.367 315.273,222.337 C 315.273,224.503 316.122,226.27 317.82,227.638 C 319.518,229.006 321.701,229.689 324.37,229.689 C 327.092,229.689 329.648,229.174 332.04,228.144 L 331.307,226.399 C 328.902,227.403 326.603,227.905 324.41,227.906 C 322.269,227.905 320.565,227.41 319.296,226.419 C 318.028,225.428 317.394,224.081 317.394,222.376 C 317.394,221.306 317.588,220.427 317.978,219.74 C 318.368,219.053 319.006,218.435 319.891,217.887 C 320.776,217.339 322.296,216.681 324.45,215.915 C 326.709,215.135 328.406,214.379 329.543,213.646 C 330.679,212.913 331.508,212.08 332.03,211.149 C 332.552,210.217 332.813,209.091 332.813,207.77 Z" marker-start="none" marker-end="none"/>
      </g>
     </g>
     <g id="Group_5">
      <g id="Group_6">
       <path d="M 83.585,187.703 C 79.951,187.704 77.091,186.541 75.004,184.215 C 72.916,181.89 71.873,178.706 71.873,174.663 C 71.873,170.527 72.857,167.317 74.825,165.031 C 76.794,162.745 79.608,161.602 83.268,161.602 C 85.699,161.602 87.932,161.912 89.967,162.534 L 89.967,160.75 C 88.051,160.076 85.66,159.739 82.793,159.739 C 78.723,159.739 75.519,161.054 73.18,163.683 C 70.841,166.312 69.672,169.985 69.672,174.702 C 69.672,177.649 70.23,180.245 71.347,182.491 C 72.463,184.738 74.069,186.472 76.163,187.694 C 78.257,188.916 80.692,189.527 83.466,189.527 C 86.294,189.527 88.824,188.998 91.057,187.941 L 90.244,186.118 C 88.131,187.175 85.911,187.704 83.585,187.703 Z" marker-start="none" marker-end="none"/>
       <path d="M 119.974,174.663 C 119.974,170.065 118.825,166.428 116.526,163.752 C 114.227,161.077 111.056,159.739 107.013,159.739 C 102.983,159.739 99.819,161.077 97.52,163.752 C 95.221,166.428 94.071,170.078 94.071,174.702 C 94.071,179.313 95.23,182.944 97.55,185.593 C 99.868,188.242 103.036,189.566 107.053,189.566 C 111.096,189.566 114.26,188.235 116.546,185.573 C 118.832,182.91 119.974,179.274 119.974,174.663 Z M 96.272,174.663 C 96.272,170.514 97.196,167.306 99.046,165.041 C 100.896,162.774 103.552,161.642 107.013,161.642 C 110.501,161.642 113.167,162.765 115.01,165.011 C 116.854,167.257 117.775,170.474 117.775,174.663 C 117.775,178.838 116.854,182.039 115.01,184.265 C 113.167,186.491 110.515,187.604 107.053,187.605 C 103.605,187.604 100.945,186.481 99.076,184.235 C 97.206,181.989 96.272,178.799 96.272,174.663 Z" marker-start="none" marker-end="none"/>
       <path d="M 139.378,160.136 L 128.577,186.891 L 128.418,186.891 C 128.523,185.252 128.576,183.575 128.577,181.857 L 128.577,160.136 L 126.634,160.136 L 126.634,189.11 L 129.766,189.11 L 140.032,163.624 L 140.151,163.624 L 150.417,189.11 L 153.469,189.11 L 153.469,160.136 L 151.428,160.136 L 151.428,182.095 C 151.428,183.628 151.507,185.213 151.666,186.852 L 151.507,186.852 L 140.666,160.136 L 139.378,160.136 Z" marker-start="none" marker-end="none"/>
       <path d="M 179.095,180.787 C 179.095,177.986 178.144,175.838 176.241,174.346 C 174.339,172.852 171.643,172.106 168.155,172.106 L 163.676,172.106 L 163.676,160.136 L 161.654,160.136 L 161.654,189.11 L 168.749,189.11 C 175.647,189.111 179.095,186.336 179.095,180.787 Z M 163.676,173.85 L 167.659,173.85 C 170.923,173.85 173.281,174.388 174.734,175.465 C 176.188,176.542 176.914,178.29 176.915,180.707 C 176.914,182.94 176.227,184.595 174.853,185.672 C 173.479,186.749 171.352,187.287 168.472,187.287 L 163.676,187.287 L 163.676,173.85 Z" marker-start="none" marker-end="none"/>
       <path d="M 209.754,174.663 C 209.754,170.065 208.605,166.428 206.306,163.752 C 204.007,161.077 200.836,159.739 196.793,159.739 C 192.763,159.739 189.599,161.077 187.3,163.752 C 185.001,166.428 183.851,170.078 183.851,174.702 C 183.851,179.313 185.01,182.944 187.33,185.593 C 189.648,188.242 192.816,189.566 196.833,189.566 C 200.876,189.566 204.04,188.235 206.326,185.573 C 208.612,182.91 209.754,179.274 209.754,174.663 Z M 186.052,174.663 C 186.052,170.514 186.976,167.306 188.826,165.041 C 190.676,162.774 193.332,161.642 196.793,161.642 C 200.281,161.642 202.947,162.765 204.79,165.011 C 206.634,167.257 207.555,170.474 207.555,174.663 C 207.555,178.838 206.634,182.039 204.79,184.265 C 202.947,186.491 200.295,187.604 196.833,187.605 C 193.385,187.604 190.725,186.481 188.856,184.235 C 186.986,181.989 186.052,178.799 186.052,174.663 Z" marker-start="none" marker-end="none"/>
       <path d="M 237.481,160.136 L 235.44,160.136 L 218.277,185.86 L 218.119,185.86 C 218.277,182.795 218.356,180.482 218.357,178.924 L 218.357,160.136 L 216.414,160.136 L 216.414,189.11 L 218.436,189.11 L 235.579,163.425 L 235.698,163.425 C 235.579,165.803 235.52,168.063 235.52,170.203 L 235.52,189.11 L 237.481,189.11 L 237.481,160.136 Z" marker-start="none" marker-end="none"/>
       <path d="M 261.522,160.136 L 245.687,160.136 L 245.687,189.11 L 261.522,189.11 L 261.522,187.248 L 247.709,187.248 L 247.709,176.288 L 260.749,176.288 L 260.749,174.425 L 247.709,174.425 L 247.709,161.999 L 261.522,161.999 L 261.522,160.136 Z" marker-start="none" marker-end="none"/>
       <path d="M 289.15,160.136 L 287.109,160.136 L 269.946,185.86 L 269.788,185.86 C 269.946,182.795 270.025,180.482 270.026,178.924 L 270.026,160.136 L 268.083,160.136 L 268.083,189.11 L 270.105,189.11 L 287.248,163.425 L 287.367,163.425 C 287.248,165.803 287.189,168.063 287.189,170.203 L 287.189,189.11 L 289.15,189.11 L 289.15,160.136 Z" marker-start="none" marker-end="none"/>
       <path d="M 304.907,160.136 L 302.866,160.136 L 302.866,187.208 L 293.452,187.208 L 293.452,189.11 L 314.321,189.11 L 314.321,187.208 L 304.907,187.208 L 304.907,160.136 Z" marker-start="none" marker-end="none"/>
      </g>
     </g>
    </g>
   </g>
  </g>
 </g>
</svg>
